<?xml version="1.0" encoding="utf-8"?>
<!-- Generator: Adobe Illustrator 27.0.0, SVG Export Plug-In . SVG Version: 6.00 Build 0)  -->
<svg version="1.1" id="Layer_1" xmlns="http://www.w3.org/2000/svg" xmlns:xlink="http://www.w3.org/1999/xlink" x="0px" y="0px"
	 viewBox="0 0 342 71" style="enable-background:new 0 0 342 71;" xml:space="preserve">
<style type="text/css">
	.st0{fill:#FFFFFF;}
</style>
<g>
	<path class="st0" d="M42.2,6.2h12.1v57H42.2V39.6H15.7v23.7H3.6v-57h12.1V29h26.5V6.2z"/>
	<path class="st0" d="M77,53.1h26.4v10.2H64.9v-57H103v10.1H77v12.8h22.4l-1.4,10H77V53.1z"/>
	<path class="st0" d="M106.9,57.6l5.6-8.7c5.5,3.5,10.8,5.2,16,5.2c3.3,0,6-0.5,7.9-1.6c1.9-1.1,2.9-2.6,2.9-4.8
		c0-1.3-0.3-2.4-0.9-3.2c-0.6-0.8-1.7-1.7-3.3-2.5c-1.6-0.8-3.9-1.8-7-3l-2-0.8c-3.8-1.5-6.8-2.9-9.1-4.2c-2.3-1.3-4.1-3.1-5.5-5.2
		c-1.4-2.1-2-4.8-2-8c0-3.6,1-6.6,3.1-8.9c2.1-2.4,4.7-4.1,7.9-5.2c3.2-1.1,6.7-1.7,10.3-1.7c3.3,0,6.7,0.5,10.2,1.6
		c3.5,1.1,6.8,2.7,10,4.8l-5.7,8.6c-2.8-1.7-5.3-2.9-7.4-3.7c-2.2-0.8-4.5-1.1-7-1.1c-2.8,0-4.9,0.5-6.3,1.4
		c-1.4,0.9-2.1,2.2-2.1,3.8c0,1,0.3,1.9,0.9,2.7s1.6,1.6,3.1,2.4s3.7,1.7,6.6,2.8l1.9,0.7c3.7,1.4,6.8,2.7,9.1,4
		c2.3,1.2,4.2,3,5.8,5.3c1.6,2.3,2.4,5.3,2.4,8.9c0,3.8-1,7-3,9.6c-2,2.6-4.7,4.6-8.1,5.9c-3.4,1.3-7.3,1.9-11.7,1.9
		C120.5,64.5,113,62.2,106.9,57.6z"/>
	<path class="st0" d="M197.9,6.2H210v57h-12.1V39.6h-26.5v23.7h-12.1v-57h12.1V29h26.5V6.2z"/>
	<path class="st0" d="M251.5,6.2L272,62.6v0.7h-13.3l-4.6-13.6H233l-4.5,13.6h-13.1v-0.7l20.5-56.3H251.5z M236.3,39.6h14.4
		l-7.3-21.7L236.3,39.6z"/>
	<path class="st0" d="M339,6.2v57h-12.1V27.8c-0.8,2.2-2.1,5-3.9,8.5l-9.9,19.9h-9.6l-10.1-19.9c-1.8-3.6-3.1-6.4-3.9-8.5v35.5
		h-12.1v-57h12.8l13,25c1,1.9,1.9,3.9,2.8,5.9c0.9,2,1.6,3.8,2.1,5.3c0.8-2.7,2.5-6.5,5-11.3l13.2-25H339z"/>
</g>
</svg>
